<svg xmlns="http://www.w3.org/2000/svg" aria-hidden="true" style="position:absolute;width:0;height:0;overflow:hidden">
  <defs>
    <style>
      .s {
        fill: none;
        stroke: currentColor;
        stroke-linecap: round;
        stroke-linejoin: round;
        vector-effect: non-scaling-stroke;
      }
    </style>
  </defs>

  <symbol id="follicle-anatomy" viewBox="0 0 360 420">
    <g class="s" stroke-width="1.05">
      <path d="M216 -12C219 65 219 129 214 190C208 269 192 327 165 384"/>
      <path d="M246 -8C251 75 249 145 241 205C232 276 212 335 183 392"/>
      <path d="M164 26C132 89 120 161 126 232C132 304 156 356 194 401"/>
      <path d="M280 44C300 92 306 146 300 204C292 278 264 338 214 397"/>
      <path d="M144 116C134 158 136 204 146 254C158 310 186 355 227 392" opacity=".42"/>
      <path d="M113 342C157 388 212 411 281 407" opacity=".32"/>
      <path d="M152 244C176 259 201 264 228 258" opacity=".3"/>
      <path d="M198 350C218 374 246 386 281 386" opacity=".24"/>
    </g>
  </symbol>

  <symbol id="hair-growth-cycle" viewBox="0 0 640 240">
    <g class="s" stroke-width="1">
      <path d="M48 149C129 110 212 93 298 99C391 105 482 134 590 143"/>
      <path d="M74 171C148 137 219 125 287 129C371 133 456 158 562 175" opacity=".34"/>
      <path d="M126 92C143 65 169 47 206 39" opacity=".28"/>
      <path d="M280 87C296 65 321 49 355 42" opacity=".28"/>
      <path d="M432 102C451 82 477 69 510 65" opacity=".28"/>
      <path d="M118 145C121 111 129 82 145 57"/>
      <path d="M270 129C273 101 282 78 298 59"/>
      <path d="M420 138C422 116 429 96 442 81"/>
      <path d="M530 154C532 136 538 121 548 109"/>
      <path d="M152 163C167 148 186 141 208 143" opacity=".26"/>
      <path d="M309 153C326 141 344 136 365 138" opacity=".26"/>
      <path d="M463 160C478 151 494 146 513 147" opacity=".26"/>
    </g>
  </symbol>

  <symbol id="dermal-papilla" viewBox="0 0 300 260">
    <g class="s" stroke-width="1.02">
      <path d="M62 83C82 47 117 28 167 24C201 22 230 29 253 47"/>
      <path d="M92 107C94 82 104 61 121 46C140 29 165 24 196 31"/>
      <path d="M70 148C94 127 118 117 143 118C174 118 202 132 228 163"/>
      <path d="M108 175C130 157 152 149 176 151C198 152 219 163 240 184" opacity=".36"/>
      <path d="M128 208C147 197 168 193 191 197" opacity=".28"/>
    </g>
  </symbol>

  <symbol id="follicular-unit" viewBox="0 0 420 320">
    <g class="s" stroke-width="1">
      <path d="M81 16C84 75 86 126 84 170C82 220 75 263 63 299"/>
      <path d="M102 24C108 91 109 147 104 193C100 235 90 271 73 302"/>
      <path d="M58 84C46 139 47 191 64 238C75 267 95 290 126 307"/>
      <path d="M168 2C173 65 173 120 168 169C162 223 147 267 123 302"/>
      <path d="M192 10C199 81 198 140 190 189C182 240 165 278 139 308"/>
      <path d="M148 74C138 127 141 180 161 230C173 258 193 282 224 302"/>
      <path d="M268 14C273 73 273 126 268 172C262 222 248 266 225 303"/>
      <path d="M291 20C298 87 298 144 291 194C283 243 267 282 241 311"/>
      <path d="M248 83C239 129 242 177 259 224C271 256 290 281 316 300"/>
      <path d="M332 88C343 67 358 53 379 45" opacity=".28"/>
      <path d="M110 284C129 299 151 308 176 312" opacity=".24"/>
      <path d="M279 281C297 294 317 301 339 302" opacity=".24"/>
    </g>
  </symbol>

  <symbol id="icon-practical-fue" viewBox="0 0 64 64">
    <g class="s" stroke-width="1.05">
      <path d="M17 43C24 29 31 19 38 12"/>
      <path d="M26 49C32 37 39 28 47 20"/>
      <path d="M14 50L27 50"/>
      <path d="M36 18L51 18" opacity=".34"/>
    </g>
  </symbol>

  <symbol id="icon-live-patient" viewBox="0 0 64 64">
    <g class="s" stroke-width="1.05">
      <path d="M18 16C29 10 40 11 50 18"/>
      <path d="M16 23C15 34 20 44 31 51"/>
      <path d="M29 18C30 29 31 38 33 45"/>
      <path d="M35 17C36 28 37 36 39 42" opacity=".34"/>
    </g>
  </symbol>

  <symbol id="icon-trichology" viewBox="0 0 64 64">
    <g class="s" stroke-width="1.05">
      <circle cx="28" cy="31" r="14"/>
      <path d="M28 18C29 27 30 34 31 39"/>
      <path d="M33 17C35 27 36 33 37 37"/>
      <path d="M42 42L51 51"/>
    </g>
  </symbol>

  <symbol id="icon-audit-feedback" viewBox="0 0 64 64">
    <g class="s" stroke-width="1.05">
      <path d="M14 17H50"/>
      <path d="M14 32H50"/>
      <path d="M14 47H36"/>
      <path d="M22 13V51"/>
      <path d="M38 23C42 26 45 30 47 36"/>
      <circle cx="46" cy="41" r="4.5"/>
    </g>
  </symbol>

  <symbol id="icon-mentorship-progression" viewBox="0 0 64 64">
    <g class="s" stroke-width="1.05">
      <circle cx="18" cy="44" r="3.5"/>
      <circle cx="32" cy="31" r="3.5"/>
      <circle cx="46" cy="18" r="3.5"/>
      <path d="M21 41L29 34"/>
      <path d="M35 28L43 21"/>
      <path d="M13 23C23 21 32 17 41 11" opacity=".34"/>
    </g>
  </symbol>

  <symbol id="pathway-progress" viewBox="0 0 960 160">
    <g class="s" stroke-width="1">
      <path d="M54 92C241 71 424 67 602 81C700 88 801 100 902 110"/>
      <path d="M90 97L90 64"/>
      <path d="M240 88L240 57"/>
      <path d="M390 83L390 51"/>
      <path d="M540 82L540 50"/>
      <path d="M690 90L690 58"/>
      <path d="M840 104L840 69"/>
      <path d="M74 52C92 39 112 35 134 39" opacity=".24"/>
      <path d="M366 118C387 129 410 131 435 123" opacity=".24"/>
      <path d="M663 53C684 43 707 42 731 49" opacity=".24"/>
    </g>
  </symbol>

  <symbol id="follicle-intelligence-support" viewBox="0 0 420 280">
    <g class="s" stroke-width="1">
      <path d="M32 195C106 149 176 126 245 126C298 126 352 139 388 169"/>
      <path d="M53 224C121 184 184 165 240 165C290 165 332 177 374 204" opacity=".34"/>
      <path d="M86 112L86 225"/>
      <path d="M188 80L188 202"/>
      <path d="M302 73L302 196"/>
      <circle cx="86" cy="112" r="7"/>
      <circle cx="188" cy="80" r="7"/>
      <circle cx="302" cy="73" r="7"/>
      <circle cx="373" cy="205" r="8"/>
      <path d="M228 34C232 76 231 113 223 146C215 178 198 210 172 241"/>
      <path d="M247 42C252 85 250 122 241 154C231 190 211 221 180 252"/>
      <path d="M201 89C188 126 186 164 196 202" opacity=".3"/>
    </g>
  </symbol>
</svg>
